<svg width="251" height="256" viewBox="0 0 251 256" fill="none" xmlns="http://www.w3.org/2000/svg">
<g id="Group">
<g id="Group_2">
<g id="Group_3">
<path id="Vector" d="M210.521 150.44C199.799 146.75 186.51 140.178 186.39 127.034C186.321 118.114 191.44 109.886 193.898 101.517C198.624 85.4167 192.518 67.783 182.231 55.2052C171.673 42.2798 156.199 33.1545 139.694 30.4096C131.587 29.0487 123.207 29.2835 115.258 31.399C107.276 33.5156 99.6439 37.467 92.5872 41.7078C76.8854 51.1791 62.936 63.8656 51.6816 78.3282C40.6298 92.5416 31.6902 109.052 28.3629 126.905C26.8397 135.147 26.4944 143.773 27.9685 152.065C29.754 162.032 34.6564 171.219 41.084 178.948C54.2413 194.754 73.8897 205.317 93.787 209.865C113.634 214.365 134.037 209.213 148.428 194.586C155.945 186.946 160.962 177.556 165.832 168.122C168.306 163.348 171.239 158.251 176.657 156.491C181.995 154.75 187.489 156.453 192.43 158.579C196.682 160.435 200.721 162.752 204.972 164.575C205.727 164.908 206.449 164.674 206.913 163.979C208.967 160.789 211.419 157.909 212.697 154.273C213.291 152.538 210.502 151.898 209.908 153.634C208.75 156.974 206.277 159.708 204.394 162.651C205.051 162.452 205.677 162.254 206.334 162.055C198.407 158.664 190.568 152.906 181.598 152.933C170.443 152.981 165.847 161.855 161.377 170.629C156.601 179.962 150.874 188.937 142.882 195.88C135.252 202.503 125.802 206.852 115.788 208.159C95.2753 210.853 73.3178 202.048 57.0386 189.969C48.7165 183.79 41.3527 176.155 36.3552 167.035C31.6838 158.505 29.7067 149.144 29.9049 139.438C30.2537 121.615 37.4407 104.464 47.034 89.698C57.0913 74.2371 70.2996 60.6351 85.2825 49.9237C98.6978 40.3471 114.207 31.9831 131.11 32.432C147.949 32.8831 164.355 40.748 176.096 52.6804C187.486 64.2838 195.449 81.745 191.739 98.2342C189.849 106.666 185.149 114.281 183.798 122.874C182.343 132.247 186.801 140.671 194.465 146.013C199.133 149.265 204.446 151.395 209.798 153.216C211.631 153.838 212.256 151.033 210.521 150.44Z" fill="#E1D4DB"/>
</g>
</g>
<g id="Group_4">
<g id="Group_5">
<path id="Vector_2" d="M200.642 151.435C194.565 148.682 188.228 146.439 182.409 143.143C179.574 141.549 176.891 139.659 174.584 137.336C172.008 134.698 170.287 131.449 168.55 128.217C163.129 117.978 160.246 106.573 154.156 96.6791C142.778 78.2419 121.45 66.7932 100.159 64.8C88.2716 63.6892 76.2526 65.6268 65.539 70.9881C63.881 71.8182 65.3982 74.2473 67.0406 73.4339C86.4118 63.7647 109.969 66.2524 128.525 76.5749C138.396 82.0735 146.948 89.8811 152.631 99.7072C158.297 109.485 161.122 120.584 166.533 130.5C169.866 136.612 173.768 141.281 179.777 144.943C185.917 148.666 192.776 151.022 199.296 153.972C200.972 154.728 202.334 152.207 200.642 151.435Z" fill="#E1D4DB"/>
</g>
</g>
<g id="Group_6">
<g id="Group_7">
<path id="Vector_3" d="M168.208 143.158C135.275 138.055 100.153 137.522 69.8746 122.068C61.0876 117.587 53.0865 111.835 46.2263 104.767C44.9543 103.447 42.9956 105.534 44.2675 106.853C69.0624 132.328 105.675 138.059 139.373 142.247C148.786 143.421 158.21 144.481 167.583 145.931C169.373 146.23 170.015 143.441 168.208 143.158Z" fill="#E1D4DB"/>
</g>
</g>
<g id="Group_8">
<g id="Group_9">
<path id="Vector_4" d="M151.802 125.464C131.331 99.9974 98.0951 86.7909 66.1495 84.2791C64.315 84.1271 64.4208 86.9898 66.2386 87.1262C97.0478 89.5447 129.608 102.368 149.354 126.935C150.484 128.372 152.932 126.901 151.802 125.464Z" fill="#E1D4DB"/>
</g>
</g>
<g id="Group_10">
<g id="Group_11">
<path id="Vector_5" d="M123.723 119.202C110.452 117.358 98.0458 111.584 86.9048 104.329C85.3675 103.325 84.022 105.862 85.5593 106.865C96.8817 114.228 109.583 120.123 123.081 121.992C124.887 122.242 125.56 119.451 123.723 119.202Z" fill="#E1D4DB"/>
</g>
</g>
<g id="Group_12">
<g id="Group_13">
<path id="Vector_6" d="M157.578 154.815C143.364 159.025 128.736 162.471 113.827 162.072C97.863 161.625 83.1532 156.232 69.0672 149.038C59.2433 144.024 49.2429 138.027 43.387 128.385C42.4305 126.796 39.9839 128.299 40.9404 129.888C46.0273 138.243 54.0951 144.058 62.4854 148.795C70.2979 153.177 78.5021 157.142 86.9964 160.028C101.367 164.946 116.46 166.02 131.467 163.841C140.606 162.497 149.554 160.22 158.394 157.591C160.158 157.049 159.344 154.306 157.578 154.815Z" fill="#E1D4DB"/>
</g>
</g>
<g id="Group_14">
<g id="Group_15">
<path id="Vector_7" d="M152.962 166.152C142.668 177.653 129.144 185.84 113.896 188.61C96.5549 191.737 78.9583 187.748 64.8326 177.219C56.3103 170.852 49.0522 162.97 41.3271 155.687C39.9925 154.434 38.017 156.505 39.3683 157.774C53.7343 171.322 67.3167 186.742 87.5441 190.972C103.077 194.217 119.336 192.209 133.489 184.989C141.681 180.81 148.931 174.96 155.064 168.125C156.283 166.726 154.198 164.768 152.962 166.152Z" fill="#E1D4DB"/>
</g>
</g>
<g id="Group_16">
<g id="Group_17">
<path id="Vector_8" d="M107.826 174.716C97.6823 174.99 87.4768 172.79 79.4211 166.326C77.9925 165.174 76.0337 167.26 77.4624 168.413C86.1166 175.375 96.9636 177.896 107.9 177.579C109.761 177.536 109.67 174.657 107.826 174.716Z" fill="#E1D4DB"/>
</g>
</g>
<g id="Group_18">
<g id="Group_19">
<path id="Vector_9" d="M133.517 150.692C121.157 150.52 108.99 148.268 97 145.428C95.2054 144.999 94.5641 147.789 96.3587 148.217C108.578 151.115 121.004 153.391 133.591 153.556C135.453 153.578 135.364 150.731 133.517 150.692Z" fill="#E1D4DB"/>
</g>
</g>
<g id="Group_20">
<g id="Group_21">
<path id="Vector_10" d="M70.6234 136.148C64.282 133.241 58.0231 130.38 53.3226 125.056C52.0976 123.687 50.1389 125.773 51.3638 127.143C56.2322 132.655 62.755 135.67 69.3102 138.683C70.9532 139.44 72.3154 136.919 70.6234 136.148Z" fill="#E1D4DB"/>
</g>
</g>
<g id="Group_22">
<g id="Group_23">
<path id="Vector_11" d="M66.8924 103.347C60.9524 100.848 55.3178 97.7568 49.3622 95.2748C47.6722 94.5676 46.3267 97.1042 48.0167 97.8114C53.9566 100.31 59.5912 103.401 65.5468 105.883C67.2525 106.574 68.599 104.07 66.8924 103.347Z" fill="#E1D4DB"/>
</g>
</g>
<g id="Group_24">
<g id="Group_25">
<path id="Vector_12" d="M179.672 115.2C176.4 101.702 174.075 87.4293 165.382 76.1285C156.233 64.2431 142.637 55.6247 128.13 52.055C119.693 49.976 110.935 49.5103 102.294 50.2229C100.453 50.3787 100.542 53.2258 102.383 53.07C121.91 51.4598 140.29 56.6872 155.186 69.5715C161.943 75.4123 167.071 82.5194 170.232 90.8875C173.287 98.9999 174.868 107.613 176.929 116.016C177.374 117.815 180.1 116.983 179.672 115.2Z" fill="#E1D4DB"/>
</g>
</g>
<g id="Group_26">
<g id="Group_27">
<path id="Vector_13" d="M180.501 77.0393C176.78 70.4055 173.071 63.6579 168.033 57.892C162.893 51.9997 156.416 47.8341 148.943 45.53C147.194 44.9866 146.553 47.776 148.302 48.3194C155.546 50.566 161.652 54.7596 166.545 60.5464C171.168 65.9856 174.574 72.3542 178.055 78.5422C178.963 80.1487 181.394 78.6625 180.501 77.0393Z" fill="#E1D4DB"/>
</g>
</g>
</g>
</svg>
